<svg id="Capa_1" enable-background="new 0 0 512 512" height="512" viewBox="0 0 512 512" width="512" xmlns="http://www.w3.org/2000/svg"><g id="XMLID_2178_"><circle id="XMLID_3266_" cx="232" cy="232" fill="#d8f1d1" r="222"/><g id="XMLID_2179_"><circle id="XMLID_3259_" cx="388" cy="388" fill="#fff" r="114"/><path id="XMLID_232_" d="m457.78 285.552c4.126-17.467 6.22-35.448 6.22-53.552 0-61.97-24.132-120.229-67.951-164.049s-102.079-67.951-164.049-67.951-120.23 24.132-164.049 67.951-67.951 102.079-67.951 164.049 24.132 120.229 67.951 164.049 102.079 67.951 164.049 67.951c18.101 0 36.085-2.096 53.551-6.221 22.349 32.708 59.932 54.221 102.449 54.221 68.374 0 124-55.626 124-124 0-42.517-21.512-80.099-54.22-102.448zm-69.78-21.552c-12.718 0-24.994 1.928-36.554 5.501.754-9.078 1.232-18.266 1.433-27.501h90.861c-.522 11.207-1.915 22.324-4.176 33.242-15.711-7.213-33.175-11.242-51.564-11.242zm-317.188-169.542c18.22 8.755 36.927 15.951 56.056 21.572-9.508 32.014-14.938 68.196-15.754 105.97h-90.872c2.266-48.54 20.932-92.859 50.57-127.542zm372.946 127.542h-90.872c-.816-37.774-6.245-73.956-15.753-105.969 19.129-5.621 37.836-12.817 56.056-21.572 29.637 34.682 48.303 79.001 50.569 127.541zm-173.324 205.444c-9.186 8.193-18.703 13.364-28.434 15.464v-89.757c8.859.249 17.718.817 26.501 1.718-2.928 10.551-4.501 21.66-4.501 33.131 0 13.784 2.264 27.048 6.434 39.444zm-48.434 15.473c-22.023-4.743-42.868-25.06-59.544-58.412-3.565-7.13-6.842-14.688-9.833-22.603 22.593-5.186 45.755-8.121 69.377-8.764zm0-109.782c-25.829.666-51.143 3.917-75.81 9.721-9.069-30.291-14.263-64.742-15.074-100.856h90.884zm-90.884-111.135c.811-36.114 6.005-70.565 15.074-100.856 24.667 5.805 49.981 9.055 75.81 9.721v91.135zm110.884-200.917c22.023 4.743 42.868 25.06 59.544 58.412 3.565 7.13 6.842 14.688 9.833 22.603-22.593 5.186-45.755 8.121-69.377 8.764zm-20 89.778c-23.622-.644-46.784-3.578-69.377-8.764 2.991-7.915 6.268-15.473 9.833-22.603 16.676-33.352 37.521-53.669 59.544-58.411zm20 20.004c25.829-.666 51.143-3.917 75.81-9.721 9.07 30.291 14.263 64.742 15.074 100.856h-90.884zm88.83-33.832c-3.43-9.296-7.231-18.152-11.396-26.483-8.523-17.046-18.212-31.222-28.765-42.286 33.486 9.657 63.591 27.364 88.079 50.883-15.619 7.164-31.607 13.129-47.918 17.886zm-186.263-26.483c-4.166 8.331-7.967 17.187-11.397 26.483-16.312-4.757-32.299-10.722-47.917-17.886 24.488-23.519 54.593-41.226 88.079-50.883-10.553 11.064-20.242 25.24-28.765 42.286zm-33.453 171.45c.816 37.774 6.245 73.956 15.753 105.969-19.129 5.621-37.836 12.817-56.056 21.572-29.637-34.682-48.303-79.001-50.569-127.541zm22.056 124.967c3.43 9.296 7.231 18.152 11.397 26.483 8.523 17.046 18.212 31.222 28.765 42.286-33.486-9.657-63.591-27.364-88.079-50.883 15.618-7.164 31.605-13.129 47.917-17.886zm142.493-31.432c-11.133-1.296-22.399-2.09-33.663-2.389v-91.146h90.875c-.278 12.198-1.061 24.303-2.343 36.148-23.972 12.592-43.339 32.799-54.869 57.387zm112.337 156.465c-57.346 0-104-46.654-104-104s46.654-104 104-104 104 46.654 104 104-46.654 104-104 104z" fill="#5cd0b3"/><path id="XMLID_86_" d="m447.321 328.679c-3.905-3.904-10.237-3.904-14.143 0l-45.178 45.179-16.996-16.996c-3.905-3.904-10.237-3.904-14.142 0-3.905 3.905-3.905 10.237 0 14.143l24.062 24.062c.002.001.003.003.005.005 1.953 1.952 4.512 2.929 7.071 2.929s5.119-.977 7.071-2.929l52.25-52.25c3.905-3.906 3.905-10.238 0-14.143z" fill="#caeae0"/><g id="XMLID_3255_"><path id="XMLID_944_" d="m388 472.689c-2.63 0-5.21-1.069-7.07-2.93-1.86-1.86-2.93-4.44-2.93-7.07s1.07-5.21 2.93-7.069c1.86-1.86 4.44-2.931 7.07-2.931s5.21 1.07 7.07 2.931c1.86 1.859 2.93 4.439 2.93 7.069s-1.07 5.21-2.93 7.07-4.44 2.93-7.07 2.93z" fill="#caeae0"/></g><g id="XMLID_3254_"><path id="XMLID_943_" d="m388 323.31c-2.63 0-5.21-1.069-7.07-2.93-1.86-1.86-2.93-4.44-2.93-7.07s1.07-5.21 2.93-7.069c1.86-1.86 4.44-2.931 7.07-2.931s5.21 1.07 7.07 2.931c1.86 1.859 2.93 4.439 2.93 7.069s-1.07 5.21-2.93 7.07-4.44 2.93-7.07 2.93z" fill="#caeae0"/></g><g id="XMLID_2806_"><path id="XMLID_942_" d="m313.31 398c-2.63 0-5.21-1.07-7.07-2.931-1.86-1.859-2.93-4.439-2.93-7.069s1.07-5.21 2.93-7.07 4.44-2.93 7.07-2.93 5.21 1.069 7.07 2.93 2.93 4.44 2.93 7.07-1.07 5.21-2.93 7.069c-1.86 1.861-4.44 2.931-7.07 2.931z" fill="#caeae0"/></g><g id="XMLID_2183_"><path id="XMLID_941_" d="m462.69 398c-2.63 0-5.21-1.07-7.07-2.931-1.86-1.859-2.93-4.439-2.93-7.069s1.07-5.21 2.93-7.07 4.44-2.93 7.07-2.93 5.21 1.069 7.07 2.93 2.93 4.44 2.93 7.07-1.07 5.21-2.93 7.069c-1.86 1.861-4.44 2.931-7.07 2.931z" fill="#caeae0"/></g><circle id="XMLID_2180_" cx="388" cy="388" fill="#ffda8f" r="17.198"/></g></g></svg>